<svg width="42" height="42" viewBox="0 0 42 42" fill="none" xmlns="http://www.w3.org/2000/svg">
<path d="M41.3125 21C41.3125 16.9828 40.1213 13.0558 37.8896 9.71552C35.6578 6.37525 32.4858 3.77175 28.7744 2.23419C25.0631 0.696637 20.9792 0.294086 17.0391 1.07744C13.099 1.86079 9.47965 3.79486 6.6387 6.63511C3.79774 9.47535 1.86276 13.0942 1.07843 17.0341C0.294092 20.974 0.695623 25.058 2.23225 28.7697C3.76888 32.4815 6.37159 35.6542 9.71129 37.8868C13.051 40.1193 16.9777 41.3115 20.9949 41.3125H21L21.0051 41.3123C26.3895 41.3049 31.5512 39.1624 35.3582 35.3545C39.1651 31.5467 41.3064 26.3845 41.3125 21ZM22.5625 38.1156V25.6877H27.25C27.6644 25.6877 28.0618 25.5231 28.3549 25.2301C28.6479 24.937 28.8125 24.5396 28.8125 24.1252C28.8125 23.7108 28.6479 23.3134 28.3549 23.0203C28.0618 22.7273 27.6644 22.5627 27.25 22.5627H22.5625V17.8752C22.5634 17.0467 22.893 16.2524 23.4788 15.6665C24.0647 15.0807 24.859 14.7511 25.6875 14.7502H28.8125C29.2269 14.7502 29.6243 14.5856 29.9174 14.2926C30.2104 13.9995 30.375 13.6021 30.375 13.1877C30.375 12.7733 30.2104 12.3759 29.9174 12.0828C29.6243 11.7898 29.2269 11.6252 28.8125 11.6252H25.6875C24.0305 11.6271 22.4418 12.2861 21.2701 13.4578C20.0984 14.6295 19.4394 16.2182 19.4375 17.8752V22.5627H14.75C14.3356 22.5627 13.9382 22.7273 13.6452 23.0203C13.3521 23.3134 13.1875 23.7108 13.1875 24.1252C13.1875 24.5396 13.3521 24.937 13.6452 25.2301C13.9382 25.5231 14.3356 25.6877 14.75 25.6877H19.4375V38.1156C15.0328 37.7135 10.9527 35.6289 8.04579 32.2952C5.1389 28.9616 3.62906 24.6357 3.83031 20.2172C4.03157 15.7988 5.92842 11.628 9.12633 8.57248C12.3242 5.51692 16.577 3.8118 21 3.8118C25.423 3.8118 29.6758 5.51692 32.8737 8.57248C36.0716 11.628 37.9685 15.7988 38.1697 20.2172C38.371 24.6357 36.8611 28.9616 33.9542 32.2952C31.0473 35.6289 26.9672 37.7135 22.5625 38.1156Z" fill="white"/>
</svg>
