<svg width="20" height="20" viewBox="0 0 20 20" fill="none" xmlns="http://www.w3.org/2000/svg">
<path d="M7.40558 17.7778C8.09593 17.7778 8.65558 17.2182 8.65558 16.5278C8.65558 15.8375 8.09593 15.2778 7.40558 15.2778C6.71522 15.2778 6.15558 15.8375 6.15558 16.5278C6.15558 17.2182 6.71522 17.7778 7.40558 17.7778Z" fill="white"/>
<path d="M15 17.7778C15.6904 17.7778 16.25 17.2182 16.25 16.5278C16.25 15.8375 15.6904 15.2778 15 15.2778C14.3096 15.2778 13.75 15.8375 13.75 16.5278C13.75 17.2182 14.3096 17.7778 15 17.7778Z" fill="white"/>
<path d="M18.3778 2.9833C18.3261 2.91957 18.2609 2.86808 18.1869 2.83254C18.113 2.797 18.032 2.77829 17.95 2.77774H6.38331L6.74442 3.88885H17.2222L15.7389 10.5555H7.40554L4.86665 2.51663C4.83918 2.43133 4.7915 2.35394 4.72765 2.29106C4.6638 2.22818 4.58569 2.18168 4.49998 2.15552L2.2222 1.45552C2.15216 1.434 2.07857 1.42648 2.00563 1.4334C1.93269 1.44032 1.86182 1.46154 1.79708 1.49584C1.66632 1.56513 1.56845 1.68352 1.52498 1.82497C1.48151 1.96641 1.49602 2.11934 1.5653 2.25009C1.63459 2.38085 1.75298 2.47872 1.89442 2.52219L3.88887 3.1333L6.43887 11.1889L5.52776 11.9333L5.45554 12.0055C5.23017 12.2652 5.10243 12.5954 5.09431 12.9392C5.0862 13.283 5.19822 13.6188 5.41109 13.8889C5.56251 14.073 5.75493 14.2192 5.97295 14.3156C6.19096 14.4121 6.42853 14.4562 6.66665 14.4444H15.9389C16.0862 14.4444 16.2275 14.3859 16.3317 14.2817C16.4359 14.1775 16.4944 14.0362 16.4944 13.8889C16.4944 13.7415 16.4359 13.6002 16.3317 13.496C16.2275 13.3918 16.0862 13.3333 15.9389 13.3333H6.57776C6.51378 13.3311 6.45145 13.3125 6.39679 13.2792C6.34213 13.2459 6.29698 13.199 6.2657 13.1432C6.23442 13.0873 6.21808 13.0243 6.21824 12.9603C6.21841 12.8963 6.23508 12.8334 6.26665 12.7777L7.60554 11.6666H16.1833C16.3117 11.6698 16.4373 11.6283 16.5386 11.5493C16.6399 11.4703 16.7106 11.3586 16.7389 11.2333L18.5 3.45552C18.5169 3.3727 18.5146 3.28711 18.4935 3.20528C18.4723 3.12345 18.4327 3.04753 18.3778 2.9833Z" fill="white"/>
</svg>
