<svg width="50" height="50" viewBox="0 0 50 50" fill="none" xmlns="http://www.w3.org/2000/svg">
<path d="M35.0098 17.2405C36.2524 17.2405 37.2598 16.2331 37.2598 14.9905C37.2598 13.7478 36.2524 12.7405 35.0098 12.7405C33.7671 12.7405 32.7598 13.7478 32.7598 14.9905C32.7598 16.2331 33.7671 17.2405 35.0098 17.2405Z" fill="white"/>
<path d="M25.0002 15.3718C23.0959 15.3718 21.2344 15.9365 19.6511 16.9945C18.0678 18.0524 16.8337 19.5561 16.105 21.3154C15.3762 23.0747 15.1856 25.0106 15.5571 26.8783C15.9286 28.746 16.8456 30.4615 18.1921 31.8081C19.5386 33.1546 21.2542 34.0716 23.1218 34.4431C24.9895 34.8146 26.9254 34.6239 28.6847 33.8952C30.444 33.1664 31.9477 31.9324 33.0057 30.3491C34.0636 28.7657 34.6283 26.9042 34.6283 25C34.6283 22.4464 33.6139 19.9975 31.8083 18.1918C30.0027 16.3862 27.5537 15.3718 25.0002 15.3718ZM25.0002 31.25C23.7641 31.25 22.5557 30.8834 21.5279 30.1966C20.5001 29.5099 19.699 28.5338 19.226 27.3917C18.7529 26.2497 18.6291 24.993 18.8703 23.7806C19.1114 22.5683 19.7067 21.4546 20.5808 20.5805C21.4549 19.7065 22.5685 19.1112 23.7809 18.87C24.9933 18.6289 26.2499 18.7527 27.392 19.2257C28.534 19.6988 29.5101 20.4998 30.1969 21.5276C30.8836 22.5554 31.2502 23.7638 31.2502 25C31.2502 26.6576 30.5917 28.2473 29.4196 29.4194C28.2475 30.5915 26.6578 31.25 25.0002 31.25Z" fill="white"/>
<path d="M25 9.62813C30.0063 9.62813 30.6 9.64687 32.5766 9.7375C33.7654 9.75161 34.9429 9.96989 36.0578 10.3828C36.8667 10.6948 37.6012 11.1727 38.2143 11.7857C38.8273 12.3988 39.3052 13.1333 39.6172 13.9422C40.0301 15.0571 40.2484 16.2346 40.2625 17.4234C40.3531 19.4 40.3719 19.9937 40.3719 25.0016C40.3719 30.0094 40.3531 30.6 40.2625 32.5766C40.2484 33.7654 40.0301 34.9429 39.6172 36.0578C39.3052 36.8667 38.8273 37.6012 38.2143 38.2143C37.6012 38.8273 36.8667 39.3052 36.0578 39.6172C34.9429 40.0301 33.7654 40.2484 32.5766 40.2625C30.6 40.3531 30.0063 40.3719 25 40.3719C19.9937 40.3719 19.4 40.3531 17.4234 40.2625C16.2346 40.2484 15.0571 40.0301 13.9422 39.6172C13.1333 39.3052 12.3988 38.8273 11.7857 38.2143C11.1727 37.6012 10.6948 36.8667 10.3828 36.0578C9.96989 34.9429 9.75161 33.7654 9.7375 32.5766C9.64687 30.6 9.62813 30.0063 9.62813 25C9.62813 19.9937 9.64687 19.4 9.7375 17.4234C9.75161 16.2346 9.96989 15.0571 10.3828 13.9422C10.6948 13.1333 11.1727 12.3988 11.7857 11.7857C12.3988 11.1727 13.1333 10.6948 13.9422 10.3828C15.0571 9.96989 16.2346 9.75161 17.4234 9.7375C19.4 9.64687 19.9937 9.62813 25 9.62813ZM25 6.25C19.9078 6.25 19.2688 6.27188 17.2688 6.3625C15.7137 6.3939 14.1752 6.6887 12.7188 7.23438C11.473 7.71609 10.3417 8.45278 9.39722 9.39722C8.45278 10.3417 7.71609 11.473 7.23438 12.7188C6.68853 14.1757 6.39372 15.7147 6.3625 17.2703C6.27188 19.2703 6.25 19.9062 6.25 25C6.25 30.0938 6.27188 30.7313 6.3625 32.7313C6.3939 34.2863 6.6887 35.8248 7.23438 37.2812C7.71609 38.527 8.45278 39.6583 9.39722 40.6028C10.3417 41.5472 11.473 42.2839 12.7188 42.7656C14.1757 43.3115 15.7147 43.6063 17.2703 43.6375C19.2703 43.7281 19.9078 43.75 25 43.75C30.0922 43.75 30.7313 43.7281 32.7313 43.6375C34.2868 43.6063 35.8258 43.3115 37.2828 42.7656C38.5286 42.2839 39.6599 41.5472 40.6043 40.6028C41.5488 39.6583 42.2855 38.527 42.7672 37.2812C43.3125 35.8242 43.6068 34.2852 43.6375 32.7297C43.7281 30.7297 43.75 30.0938 43.75 25C43.75 19.9062 43.7281 19.2688 43.6375 17.2688C43.6061 15.7137 43.3113 14.1752 42.7656 12.7188C42.2839 11.473 41.5472 10.3417 40.6028 9.39722C39.6583 8.45278 38.527 7.71609 37.2812 7.23438C35.8242 6.68906 34.2852 6.39479 32.7297 6.36406C30.7297 6.27031 30.0938 6.25 25 6.25Z" fill="white"/>
</svg>
