<svg width="20" height="20" viewBox="0 0 20 20" fill="none" xmlns="http://www.w3.org/2000/svg">
<path d="M8.13503 1.28143C9.49053 1.28019 10.8159 1.68057 11.9436 2.43193C13.0713 3.18328 13.9505 4.25184 14.4701 5.50244C14.9897 6.75304 15.1263 8.12947 14.8626 9.45763C14.5989 10.7858 13.9468 12.006 12.9887 12.9638C12.0307 13.9217 10.8098 14.5742 9.48038 14.8388C8.15102 15.1035 6.77295 14.9683 5.52051 14.4504C4.26807 13.9325 3.19754 13.0552 2.44433 11.9295C1.69113 10.8037 1.28909 9.48015 1.28909 8.12613C1.29731 6.31441 2.02102 4.57914 3.30292 3.29747C4.58483 2.01579 6.32133 1.29129 8.13503 1.28143ZM8.13503 0C6.52607 0 4.95325 0.476589 3.61545 1.3695C2.27765 2.26241 1.23497 3.53154 0.619246 5.01639C0.00352489 6.50125 -0.157576 8.13514 0.156316 9.71146C0.470208 11.2878 1.24499 12.7357 2.3827 13.8722C3.5204 15.0086 4.96992 15.7826 6.54796 16.0961C8.126 16.4097 9.76168 16.2487 11.2482 15.6337C12.7346 15.0186 14.0052 13.9771 14.8991 12.6408C15.7929 11.3044 16.2701 9.73333 16.2701 8.12613C16.2701 5.97094 15.413 3.90403 13.8874 2.38009C12.3617 0.856143 10.2926 0 8.13503 0Z" fill="white"/>
<path d="M19.8182 18.9339L15.2062 14.2957L14.3176 15.1771L18.9296 19.8152C18.9875 19.8735 19.0564 19.9198 19.1322 19.9515C19.2081 19.9832 19.2894 19.9997 19.3716 20C19.4539 20.0003 19.5353 19.9844 19.6114 19.9532C19.6875 19.9221 19.7567 19.8762 19.815 19.8184C19.8734 19.7605 19.9197 19.6917 19.9515 19.6159C19.9832 19.5402 19.9997 19.4589 20 19.3768C20.0003 19.2946 19.9844 19.2133 19.9532 19.1373C19.922 19.0613 19.8761 18.9922 19.8182 18.9339Z" fill="white"/>
</svg>
